<svg width="15" height="17" viewBox="0 0 15 17" fill="none" xmlns="http://www.w3.org/2000/svg">
<path fill-rule="evenodd" clip-rule="evenodd" d="M7.20882 6.08331C6.40466 6.08331 5.75049 6.73748 5.75049 7.54248C5.75049 8.34665 6.40466 8.99998 7.20882 8.99998C8.01299 8.99998 8.66715 8.34665 8.66715 7.54248C8.66715 6.73748 8.01299 6.08331 7.20882 6.08331ZM7.20882 10.25C5.71549 10.25 4.50049 9.03581 4.50049 7.54248C4.50049 6.04831 5.71549 4.83331 7.20882 4.83331C8.70216 4.83331 9.91715 6.04831 9.91715 7.54248C9.91715 9.03581 8.70216 10.25 7.20882 10.25Z" fill="#324A59"/>
<mask id="mask0_150_1727" style="mask-type:luminance" maskUnits="userSpaceOnUse" x="0" y="0" width="15" height="17">
<path fill-rule="evenodd" clip-rule="evenodd" d="M0.333374 0.666656H14.083V16.9167H0.333374V0.666656Z" fill="white"/>
</mask>
<g mask="url(#mask0_150_1727)">
<path fill-rule="evenodd" clip-rule="evenodd" d="M7.20801 1.91666C4.10634 1.91666 1.58301 4.46416 1.58301 7.59416C1.58301 11.5767 6.26967 15.4567 7.20801 15.6633C8.14634 15.4558 12.833 11.5758 12.833 7.59416C12.833 4.46416 10.3097 1.91666 7.20801 1.91666ZM7.20801 16.9167C5.71301 16.9167 0.333008 12.29 0.333008 7.59416C0.333008 3.77416 3.41717 0.666656 7.20801 0.666656C10.9988 0.666656 14.083 3.77416 14.083 7.59416C14.083 12.29 8.70301 16.9167 7.20801 16.9167Z" fill="#324A59"/>
</g>
</svg>
