<svg width="20" height="23" viewBox="0 0 20 23" fill="none" xmlns="http://www.w3.org/2000/svg">
<path d="M16.3883 9.11315L5.44965 2.87877C5.01796 2.63386 4.5305 2.54667 4.05375 2.62909C3.57699 2.71151 3.13414 2.95953 2.78556 3.33933C2.43699 3.71913 2.19966 4.21224 2.10593 4.75141C2.0122 5.29058 2.06664 5.84959 2.26181 6.35221L4.13701 11.1349C4.17956 11.2505 4.20147 11.3746 4.20147 11.5C4.20147 11.6254 4.17956 11.7495 4.13701 11.8652L2.26181 16.6478C2.10297 17.0546 2.03582 17.5002 2.06646 17.944C2.09711 18.3879 2.22457 18.816 2.43728 19.1894C2.64999 19.5628 2.9412 19.8698 3.28444 20.0823C3.62768 20.2948 4.01206 20.4062 4.40267 20.4063C4.76851 20.4021 5.12891 20.3047 5.45747 20.1213L16.3961 13.8869C16.7841 13.6644 17.1103 13.3234 17.3382 12.9019C17.5661 12.4805 17.6868 11.9951 17.6868 11.5C17.6868 11.0049 17.5661 10.5196 17.3382 10.0981C17.1103 9.67664 16.7841 9.33564 16.3961 9.11315H16.3883ZM15.6929 12.2927L4.75427 18.5271C4.61063 18.6057 4.44934 18.6323 4.29202 18.6035C4.1347 18.5747 3.98888 18.4917 3.8741 18.3657C3.75933 18.2397 3.68109 18.0768 3.64987 17.8987C3.61866 17.7205 3.63596 17.5358 3.69947 17.3692L5.56685 12.5866C5.59103 12.5227 5.6119 12.4573 5.62936 12.3906H11.0127C11.22 12.3906 11.4187 12.2968 11.5652 12.1298C11.7118 11.9628 11.7941 11.7362 11.7941 11.5C11.7941 11.2638 11.7118 11.0373 11.5652 10.8703C11.4187 10.7032 11.22 10.6094 11.0127 10.6094H5.62936C5.6119 10.5428 5.59103 10.4773 5.56685 10.4135L3.69947 5.6308C3.63596 5.46422 3.61866 5.2795 3.64987 5.10139C3.68109 4.92328 3.75933 4.76031 3.8741 4.63433C3.98888 4.50834 4.1347 4.42537 4.29202 4.39653C4.44934 4.3677 4.61063 4.39438 4.75427 4.47299L15.6929 10.7074C15.8209 10.7821 15.9283 10.8957 16.0033 11.0355C16.0783 11.1754 16.118 11.3361 16.118 11.5C16.118 11.6639 16.0783 11.8247 16.0033 11.9645C15.9283 12.1044 15.8209 12.2179 15.6929 12.2927Z" fill="#1E68D7"/>
</svg>
